<?xml version="1.0" encoding="UTF-8"?>
<svg width="512px" height="512px" viewBox="0 0 512 512" version="1.1" xmlns="http://www.w3.org/2000/svg" xmlns:xlink="http://www.w3.org/1999/xlink">
    <!-- Generator: Sketch 54.1 (76490) - https://sketchapp.com -->
    <title>Group 2</title>
    <desc>Created with Sketch.</desc>
    <defs>
        <path d="M138.449801,-5.59353766e-15 L373.550199,5.59353766e-15 C421.692211,-3.25000646e-15 439.149668,5.012583 456.749668,14.425166 C474.349668,23.837749 488.162251,37.650332 497.574834,55.250332 C506.987417,72.850332 512,90.3077888 512,138.449801 L512,373.550199 C512,421.692211 506.987417,439.149668 497.574834,456.749668 C488.162251,474.349668 474.349668,488.162251 456.749668,497.574834 C439.149668,506.987417 421.692211,512 373.550199,512 L138.449801,512 C90.3077888,512 72.850332,506.987417 55.250332,497.574834 C37.650332,488.162251 23.837749,474.349668 14.425166,456.749668 C5.012583,439.149668 2.16667098e-15,421.692211 -3.72902511e-15,373.550199 L3.72902511e-15,138.449801 C-2.16667098e-15,90.3077888 5.012583,72.850332 14.425166,55.250332 C23.837749,37.650332 37.650332,23.837749 55.250332,14.425166 C72.850332,5.012583 90.3077888,3.25000646e-15 138.449801,-5.59353766e-15 Z" id="path-1"></path>
        <filter x="-10.4%" y="-12.2%" width="120.8%" height="124.4%" filterUnits="objectBoundingBox" id="filter-3">
            <feOffset dx="0" dy="0" in="SourceAlpha" result="shadowOffsetOuter1"></feOffset>
            <feGaussianBlur stdDeviation="8" in="shadowOffsetOuter1" result="shadowBlurOuter1"></feGaussianBlur>
            <feColorMatrix values="0 0 0 0 0.48627451   0 0 0 0 0.254901961   0 0 0 0 0.117647059  0 0 0 0.08 0" type="matrix" in="shadowBlurOuter1" result="shadowMatrixOuter1"></feColorMatrix>
            <feMerge>
                <feMergeNode in="shadowMatrixOuter1"></feMergeNode>
                <feMergeNode in="SourceGraphic"></feMergeNode>
            </feMerge>
        </filter>
    </defs>
    <g id="Page-1" stroke="none" stroke-width="1" fill="none" fill-rule="evenodd">
        <g id="light" transform="translate(-20.000000, -20.000000)">
            <g id="Group-2" transform="translate(20.000000, 20.000000)">
                <g id="Group">
                    <mask id="mask-2" fill="white">
                        <use xlink:href="#path-1"></use>
                    </mask>
                    <use id="App-Icon" fill="#FFFFFF" xlink:href="#path-1"></use>
                </g>
                <g id="Asset-3" filter="url(#filter-3)" transform="translate(107.000000, 129.000000)" fill-rule="nonzero">
                    <polygon id="Path" fill="#FFFFFF" points="0 98.3100926 99.5559259 0.138425926 168.519722 0.138425926 136.930926 31.2842593 199.720926 31.2842593 231.309722 0.138425926 297.366574 0.138425926 197.838333 98.3100926 131.643056 98.3100926 163.204167 67.1642593 100.441852 67.1642593 68.8530556 98.3100926"></polygon>
                    <polygon id="Path" fill="#4D1F03" points="168.519722 0 136.930926 31.1458333 168.519722 31.1735185"></polygon>
                    <polygon id="Path" fill="#FFFFFF" points="0 160.491019 99.5559259 62.3193519 168.519722 62.3193519 136.930926 93.4651852 199.720926 93.4651852 231.309722 62.3193519 297.366574 62.3193519 197.838333 160.491019 131.643056 160.491019 163.204167 129.345185 100.441852 129.345185 68.8530556 160.491019"></polygon>
                    <polygon id="Path" fill="#FFFFFF" points="0 222.81037 99.5559259 124.638704 168.519722 124.638704 136.930926 155.784537 199.720926 155.784537 231.309722 124.638704 297.366574 124.638704 197.838333 222.81037 131.643056 222.81037 163.204167 191.664537 100.441852 191.664537 68.8530556 222.81037"></polygon>
                    <path d="M100.469537,222.81037 L68.8807407,253.956204 L0.0276851852,253.956204 L0.0276851852,222.81037 L68.8807407,222.81037 L100.469537,191.664537 L163.231852,191.664537 L131.643056,222.81037 L100.469537,222.81037 Z" id="Combined-Shape" fill="#BE894A"></path>
                    <polygon id="Path" fill="#BE894A" points="131.643056 222.81037 131.643056 253.956204 197.838333 253.956204 297.394259 155.812222 297.394259 124.638704 197.838333 222.81037"></polygon>
                    <path d="M1.42108547e-14,129.345185 L1.42108547e-14,98.1716667 L68.8530556,98.1716667 L100.441852,98.1993519 L68.8530556,129.345185 L1.42108547e-14,129.345185 Z M163.204167,67.0258333 L131.643056,98.1716667 L68.8530556,98.1716667 L100.441852,67.0258333 L163.204167,67.0258333 Z" id="Combined-Shape" fill="#4D1F03"></path>
                    <polygon id="Path" fill="#4D1F03" points="131.643056 98.1716667 131.643056 129.345185 197.838333 129.345185 297.366574 31.1735185 297.366574 0 197.838333 98.1716667"></polygon>
                    <path d="M163.204167,129.345185 L131.643056,160.491019 L68.8530556,160.491019 L100.441852,129.345185 L163.204167,129.345185 Z M1.42108547e-14,191.664537 L1.42108547e-14,160.491019 L68.8530556,160.491019 L100.441852,160.518704 L68.8530556,191.664537 L1.42108547e-14,191.664537 Z" id="Combined-Shape" fill="#7C411E"></path>
                    <polygon id="Path" fill="#7C411E" points="131.643056 160.491019 131.643056 191.664537 197.838333 191.664537 297.366574 93.4928704 297.366574 62.3193519 197.838333 160.491019"></polygon>
                </g>
            </g>
        </g>
    </g>
</svg>